# xmcd
#
# Track frame offsets: 
#        150
#        12597
#        30897
#        43947
#        56426
#
# Disc length: 915 seconds
#
# Revision: 0
# Processed by: cddbd v1.5.2PL0 Copyright (c) Steve Scherf et al.
# Submitted via: ExactAudioCopyFreeDBPlugin 1.0
#
DISCID=36039105
DTITLE=Erin Cassels-Brown - Northern Lights Vol. 1
DYEAR=2017
DGENRE=Country
TTITLE0=Athena
TTITLE1=No Matter How Brief
TTITLE2=Northern Lights
TTITLE3=Virginia, Bring Me Light
TTITLE4=Bad Bad News
EXTD=
EXTT0=
EXTT1=
EXTT2=
EXTT3=
EXTT4=
PLAYORDER=
